<?xml version="1.0" standalone="no"?>
<!DOCTYPE svg PUBLIC "-//W3C//DTD SVG 20010904//EN"
 "http://www.w3.org/TR/2001/REC-SVG-20010904/DTD/svg10.dtd">
<svg version="1.0" xmlns="http://www.w3.org/2000/svg"
 width="225.000000pt" height="225.000000pt" viewBox="0 0 225.000000 225.000000"
 preserveAspectRatio="xMidYMid meet" fill="none">

<g transform="translate(0.000000,225.000000) scale(0.100000,-0.100000)"
fill="white" stroke="white">
<path d="M1083 2188 c-27 -30 -87 -149 -128 -258 -60 -157 -111 -392 -130
-602 -6 -63 -8 -67 -46 -94 -90 -62 -165 -171 -194 -279 -26 -102 -17 -265 17
-287 27 -17 39 -6 73 67 23 48 56 96 96 137 57 59 61 62 69 41 11 -28 40 -43
84 -43 l36 0 0 -78 c0 -114 2 -116 146 -122 123 -5 165 3 178 35 3 9 6 50 6
91 l0 74 45 0 c35 0 49 5 69 27 l25 27 27 -24 c31 -29 114 -153 134 -199 10
-26 18 -31 39 -29 23 3 27 10 39 68 36 174 -45 381 -190 486 -29 21 -54 38
-54 38 -1 1 -7 51 -13 111 -25 239 -97 510 -182 685 -70 146 -103 175 -146
128z m98 -163 c16 -36 29 -69 29 -75 0 -15 -56 -40 -90 -40 -17 0 -44 7 -60
15 -34 18 -34 18 25 135 35 70 37 72 51 51 9 -12 29 -51 45 -86z m-138 -160
c45 -19 124 -19 157 0 14 8 28 14 31 15 17 1 71 -190 100 -348 15 -88 22 -177
26 -354 l6 -237 -220 -3 c-121 -2 -227 -2 -236 0 -36 7 -16 484 28 681 14 61
68 261 71 261 1 0 18 -7 37 -15z m-215 -767 l3 -85 -56 -42 c-30 -23 -72 -64
-92 -91 -21 -28 -41 -50 -45 -50 -17 0 16 139 48 203 26 50 121 160 133 153 3
-2 7 -42 9 -88z m668 40 c60 -67 101 -154 113 -243 9 -60 8 -88 -2 -74 -48 69
-95 125 -132 154 l-45 37 0 89 c0 49 4 89 9 89 5 0 31 -24 57 -52z m-268 -335
l-3 -68 -100 0 -100 0 -3 68 -3 67 106 0 106 0 -3 -67z"/>
<path d="M1069 1773 c-77 -47 -76 -158 1 -198 77 -40 170 14 170 100 0 86 -99
143 -171 98z m94 -74 c19 -27 10 -58 -20 -70 -48 -18 -85 29 -56 70 8 12 25
21 38 21 13 0 30 -9 38 -21z"/>
<path d="M1068 1494 c-53 -28 -72 -98 -42 -155 15 -29 65 -59 100 -59 30 0 80
30 97 59 59 100 -52 211 -155 155z m99 -74 c27 -55 -49 -97 -83 -46 -15 24
-15 28 0 52 22 33 65 30 83 -6z"/>
<path d="M1084 1226 c-66 -29 -91 -95 -59 -156 21 -41 53 -60 100 -60 124 0
160 168 45 214 -48 19 -46 19 -86 2z m85 -78 c25 -68 -55 -101 -90 -37 -8 16
-7 25 7 40 24 27 72 25 83 -3z"/>
<path d="M1051 628 c-108 -73 -103 -186 18 -407 56 -102 69 -98 136 41 30 62
62 142 71 177 15 59 15 67 -1 107 -23 61 -72 96 -138 102 -42 3 -58 -1 -86
-20z m143 -68 c31 -31 25 -89 -20 -198 -21 -52 -43 -94 -49 -95 -13 -3 -73
138 -84 196 -10 53 7 98 42 116 31 15 87 6 111 -19z"/>
<path d="M239 597 c-65 -35 -102 -93 -105 -166 -2 -54 -6 -63 -42 -99 -85 -85
-73 -213 27 -274 l36 -23 925 -3 c509 -2 948 0 977 3 67 8 112 39 141 95 39
75 14 168 -55 212 -30 18 -33 24 -33 71 0 111 -72 188 -184 195 -69 4 -109
-10 -158 -55 -24 -23 -30 -24 -59 -14 -118 41 -238 -20 -269 -138 -16 -62 -7
-93 28 -89 24 3 28 8 33 49 9 61 22 83 63 108 45 28 95 27 140 -4 50 -34 62
-32 90 14 18 28 38 44 71 57 45 17 48 17 93 -2 39 -16 51 -28 71 -67 21 -44
22 -51 11 -92 -14 -49 -4 -75 30 -75 24 0 67 -45 73 -78 7 -37 -15 -87 -49
-109 -26 -17 -77 -18 -960 -18 -513 0 -947 3 -964 8 -35 9 -70 58 -70 99 0 46
21 76 67 98 l44 20 -7 64 c-6 55 -4 69 15 99 57 93 185 85 237 -15 18 -35 38
-35 76 -3 23 19 41 25 80 25 45 0 54 -4 88 -38 29 -29 40 -49 45 -85 7 -45 9
-48 34 -45 32 4 38 33 21 93 -34 116 -157 176 -266 130 -35 -14 -37 -14 -55 9
-50 64 -162 84 -240 43z"/>
</g>
</svg>
